<?xml version="1.0" encoding="UTF-8"?>
<!DOCTYPE svg PUBLIC "-//W3C//DTD SVG 1.1//EN" "http://www.w3.org/Graphics/SVG/1.1/DTD/svg11.dtd">
<!-- Creator: CorelDRAW 2020 (64-Bit) -->
<svg xmlns="http://www.w3.org/2000/svg" xml:space="preserve" width="200px" height="60px" version="1.1" style="shape-rendering:geometricPrecision; text-rendering:geometricPrecision; image-rendering:optimizeQuality; fill-rule:evenodd; clip-rule:evenodd"
viewBox="0 0 200 60"
 xmlns:xlink="http://www.w3.org/1999/xlink"
 xmlns:xodm="http://www.corel.com/coreldraw/odm/2003">
 <defs>
  <style type="text/css">
   <![CDATA[
    .fil0 {fill:none}
    .fil2 {fill:#F1872E}
    .fil3 {fill:white}
    .fil4 {fill:#FEFEFE;fill-rule:nonzero}
    .fil1 {fill:white;fill-rule:nonzero}
   ]]>
  </style>
 </defs>
 <g id="Layer_x0020_1">
  <metadata id="CorelCorpID_0Corel-Layer"/>
  <rect class="fil0" width="200" height="60"/>
  <path class="fil1" d="M83.05 23.06c2.02,0 3.84,-1.24 3.84,-4.24l0 -18.64 -6.36 0 0 13.22 -13.8 -12.38c-1.11,-1.01 -1.96,-1.21 -2.8,-1.21 -1.98,0 -3.8,1.21 -3.8,4.2l0 18.68 6.33 0 0 -13.22 13.8 12.38c1.07,1.01 1.92,1.21 2.79,1.21zm27.03 -7.8c-2.9,-2.36 -4.65,-3.61 -5.92,-4.48 1.44,-0.88 2.82,-1.89 5.82,-4.14l8.61 -6.46 -10.09 0 -6.5 5.48c-2.05,1.72 -3.26,2.86 -4.14,3.67 0.07,-1.18 0.14,-2.56 0.14,-3.94l0 -5.21 -7.01 0 0 22.51 7.01 0 0 -6.46c0,-1.08 -0.07,-2.19 -0.11,-3.23 0.78,0.78 1.86,1.75 4.18,3.77l6.8 5.92 10.53 0 -9.32 -7.43zm40.86 -15.08l-7 0 0 12.69c0,3.16 -1.68,4.4 -7.03,4.4 -7.17,0 -8.59,-1.07 -8.59,-4.4l0 -12.69 -6.93 0 0 12.69c0,6.8 4.68,10.19 15.52,10.19 9.35,0 14.03,-3.39 14.03,-10.19l0 -12.69zm31.74 18.14c-1.55,-1.58 -2.39,-2.39 -3.16,-2.96 3.7,-0.74 5.89,-3.64 5.89,-7.14 0,-6.43 -6.47,-8.04 -11.58,-8.04l-14.47 0 -4.55 5.85 19.59 0c2.39,0 3.84,0.88 3.84,2.63 0,1.55 -1.69,2.52 -3.84,2.52l-19.59 0 0 11.51 6.97 0 0 -5.95 10.7 0 5.02 5.95 9.32 0 -4.14 -4.37z"/>
  <path class="fil2" d="M33.15 -0.12l2.65 0 -8.85 12.49c4.46,0 8.92,0 13.39,0l4.2 5.79 -21.69 0 -3.13 4.46 -8.17 0 16.08 -22.74 5.52 0z"/>
  <path class="fil3" d="M42.75 -0.12l16.08 22.74 -8.25 0 -4.63 -6.67 -5.96 -8.43 -2.61 3.79 -8.16 0 8.01 -11.43 5.52 0zm-10.94 19.34l-2.39 3.4 -8.27 0 2.43 -3.4 8.23 0z"/>
  <path class="fil4" d="M47.75 41.98l0 2.84 -4.68 0 0 14.72 -3.52 0 0 -14.72 -4.68 0 0 -2.84 12.88 0zm21.71 0l0 17.56 -3.53 0 0 -11.42 -4.7 11.42 -2.67 0 -4.72 -11.42 0 11.42 -3.53 0 0 -17.56 4 0 5.59 13.06 5.58 -13.06 3.98 0zm13.98 17.56l-3.8 -5.91 -3.44 5.91 -3.98 0 5.54 -8.86 -5.61 -8.7 4.05 0 3.8 5.89 3.42 -5.89 3.97 0 -5.51 8.83 5.61 8.73 -4.05 0zm32.28 -15.9l-2.82 0 0 15.9 -3.22 0 0 -8.03 -10.26 0 0 2.92c0,0.77 0.17,1.39 0.53,1.86 0.35,0.47 0.88,0.71 1.58,0.71 0.66,0 1.17,-0.22 1.53,-0.66 0.37,-0.43 0.56,-0.99 0.56,-1.68l0 -0.33 3.12 0c0.01,0.14 0.02,0.3 0.02,0.48 0,1.53 -0.46,2.73 -1.38,3.62 -0.92,0.89 -2.19,1.34 -3.8,1.34 -1.71,0 -3.03,-0.51 -3.97,-1.53 -0.94,-1.01 -1.41,-2.33 -1.41,-3.96l0 -5.08 2.04 0c1.34,0 2.32,-0.32 2.94,-0.97 0.62,-0.64 0.93,-1.54 0.93,-2.68l0 -1.91 -8.2 0 0 -2.72 21.81 0 0 2.72zm-6.04 0l-4.35 0 0 1.91c0,1.28 -0.29,2.38 -0.88,3.32l5.23 0 0 -5.23zm16.28 -9.71c1.64,0 3.1,0.29 4.39,0.88 1.28,0.59 2.28,1.43 3,2.54 0.72,1.11 1.09,2.4 1.09,3.88l0 0.42 -3.17 0 0 -0.37c0,-1.06 -0.26,-1.94 -0.77,-2.63 -0.51,-0.7 -1.17,-1.21 -1.98,-1.55 -0.8,-0.34 -1.66,-0.5 -2.56,-0.5 -1.43,0 -2.65,0.34 -3.68,1.04 -1.02,0.7 -1.56,1.79 -1.61,3.28l2.82 0 0 2.72 -2.79 0 0 15.9 -3.25 0 0 -15.9 -2.79 0 0 -2.72 2.79 0c0.06,-1.47 0.45,-2.73 1.17,-3.78 0.73,-1.05 1.73,-1.85 2.98,-2.39 1.26,-0.55 2.71,-0.82 4.36,-0.82zm1.99 17.71l0 2.84c0,0.76 0.17,1.37 0.51,1.83 0.34,0.46 0.85,0.69 1.52,0.69 0.62,0 1.11,-0.22 1.47,-0.64 0.36,-0.43 0.55,-1 0.55,-1.7l0 -0.63 3.11 0c0.02,0.15 0.03,0.33 0.03,0.53 0,1.59 -0.45,2.86 -1.36,3.8 -0.9,0.94 -2.15,1.41 -3.75,1.41 -1.71,0 -3.02,-0.51 -3.93,-1.51 -0.92,-1.01 -1.38,-2.32 -1.38,-3.93l0 -5.33 2.6 0c1.34,0 2.31,-0.31 2.93,-0.92 0.61,-0.61 0.91,-1.51 0.91,-2.7l0 -1.74 -8.72 0 0 -2.72 14.44 0 0 2.72 -2.47 0 0 1.74c0,4.17 -1.97,6.26 -5.91,6.26l-0.55 0zm27.79 -8l-2.79 0 0 15.9 -3.25 0 0 -4.5c-0.51,0.67 -1.2,1.2 -2.06,1.58 -0.85,0.39 -1.85,0.58 -2.99,0.58 -2.15,0 -3.81,-0.64 -5,-1.91 -1.18,-1.28 -1.77,-3 -1.77,-5.18 0,-0.31 0.03,-0.78 0.1,-1.41l0.3 0c1.41,0 2.43,-0.31 3.06,-0.91 0.63,-0.6 0.94,-1.53 0.94,-2.79l0 -1.36 -6.44 0 0 -2.72 19.9 0 0 2.72zm-6.04 0l-4.2 0 0 1.94c0,1.46 -0.36,2.6 -1.09,3.43 -0.73,0.83 -1.83,1.31 -3.31,1.42 0,1.23 0.37,2.21 1.12,2.95 0.75,0.73 1.78,1.1 3.11,1.1 1.31,0 2.36,-0.4 3.17,-1.2 0.8,-0.81 1.2,-1.84 1.2,-3.1l0 -6.54zm7.78 15.9l0 -15.9 -2.79 0 0 -2.72 8.83 0 0 2.72 -2.8 0 0 15.9 -3.24 0z"/>
 </g>
</svg>
