<svg xmlns="http://www.w3.org/2000/svg" xml:space="preserve" width="200" height="60" style="shape-rendering:geometricPrecision;text-rendering:geometricPrecision;image-rendering:optimizeQuality;fill-rule:evenodd;clip-rule:evenodd"><path d="M0 0h200v60H0z" style="fill:none"/><path d="M83.05 23.06c2.02 0 3.84-1.24 3.84-4.24V.18h-6.36V13.4L66.73 1.02C65.62.01 64.77-.19 63.93-.19c-1.98 0-3.8 1.21-3.8 4.2v18.68h6.33V9.47l13.8 12.38c1.07 1.01 1.92 1.21 2.79 1.21zm27.03-7.8c-2.9-2.36-4.65-3.61-5.92-4.48 1.44-.88 2.82-1.89 5.82-4.14l8.61-6.46H108.5L102 5.66c-2.05 1.72-3.26 2.86-4.14 3.67.07-1.18.14-2.56.14-3.94V.18h-7.01v22.51H98v-6.46c0-1.08-.07-2.19-.11-3.23.78.78 1.86 1.75 4.18 3.77l6.8 5.92h10.53l-9.32-7.43zM150.94.18h-7v12.69c0 3.16-1.68 4.4-7.03 4.4-7.17 0-8.59-1.07-8.59-4.4V.18h-6.93v12.69c0 6.8 4.68 10.19 15.52 10.19 9.35 0 14.03-3.39 14.03-10.19V.18zm31.74 18.14c-1.55-1.58-2.39-2.39-3.16-2.96 3.7-.74 5.89-3.64 5.89-7.14 0-6.43-6.47-8.04-11.58-8.04h-14.47l-4.55 5.85h19.59c2.39 0 3.84.88 3.84 2.63 0 1.55-1.69 2.52-3.84 2.52h-19.59v11.51h6.97v-5.95h10.7l5.02 5.95h9.32l-4.14-4.37z" style="fill:#fff;fill-rule:nonzero"/><path d="M33.15-.12h2.65l-8.85 12.49h13.39l4.2 5.79H22.85l-3.13 4.46h-8.17L27.63-.12h5.52z" style="fill:#f1872e"/><path d="m42.75-.12 16.08 22.74h-8.25l-4.63-6.67-5.96-8.43-2.61 3.79h-8.16L37.23-.12h5.52zM31.81 19.22l-2.39 3.4h-8.27l2.43-3.4h8.23z" style="fill:#fff"/><path d="M47.75 41.98v2.84h-4.68v14.72h-3.52V44.82h-4.68v-2.84h12.88zm21.71 0v17.56h-3.53V48.12l-4.7 11.42h-2.67l-4.72-11.42v11.42h-3.53V41.98h4l5.59 13.06 5.58-13.06h3.98zm13.98 17.56-3.8-5.91-3.44 5.91h-3.98l5.54-8.86-5.61-8.7h4.05l3.8 5.89 3.42-5.89h3.97l-5.51 8.83 5.61 8.73h-4.05zm32.28-15.9h-2.82v15.9h-3.22v-8.03H99.42v2.92c0 .77.17 1.39.53 1.86.35.47.88.71 1.58.71.66 0 1.17-.22 1.53-.66.37-.43.56-.99.56-1.68v-.33h3.12c.01.14.02.3.02.48 0 1.53-.46 2.73-1.38 3.62-.92.89-2.19 1.34-3.8 1.34-1.71 0-3.03-.51-3.97-1.53-.94-1.01-1.41-2.33-1.41-3.96V49.2h2.04c1.34 0 2.32-.32 2.94-.97.62-.64.93-1.54.93-2.68v-1.91h-8.2v-2.72h21.81v2.72zm-6.04 0h-4.35v1.91c0 1.28-.29 2.38-.88 3.32h5.23v-5.23zm16.28-9.71c1.64 0 3.1.29 4.39.88 1.28.59 2.28 1.43 3 2.54.72 1.11 1.09 2.4 1.09 3.88v.42h-3.17v-.37c0-1.06-.26-1.94-.77-2.63-.51-.7-1.17-1.21-1.98-1.55-.8-.34-1.66-.5-2.56-.5-1.43 0-2.65.34-3.68 1.04-1.02.7-1.56 1.79-1.61 3.28h2.82v2.72h-2.79v15.9h-3.25v-15.9h-2.79v-2.72h2.79c.06-1.47.45-2.73 1.17-3.78.73-1.05 1.73-1.85 2.98-2.39 1.26-.55 2.71-.82 4.36-.82zm1.99 17.71v2.84c0 .76.17 1.37.51 1.83.34.46.85.69 1.52.69.62 0 1.11-.22 1.47-.64.36-.43.55-1 .55-1.7v-.63h3.11c.02.15.03.33.03.53 0 1.59-.45 2.86-1.36 3.8-.9.94-2.15 1.41-3.75 1.41-1.71 0-3.02-.51-3.93-1.51-.92-1.01-1.38-2.32-1.38-3.93V49h2.6c1.34 0 2.31-.31 2.93-.92.61-.61.91-1.51.91-2.7v-1.74h-8.72v-2.72h14.44v2.72h-2.47v1.74c0 4.17-1.97 6.26-5.91 6.26h-.55zm27.79-8h-2.79v15.9h-3.25v-4.5c-.51.67-1.2 1.2-2.06 1.58-.85.39-1.85.58-2.99.58-2.15 0-3.81-.64-5-1.91-1.18-1.28-1.77-3-1.77-5.18 0-.31.03-.78.1-1.41h.3c1.41 0 2.43-.31 3.06-.91.63-.6.94-1.53.94-2.79v-1.36h-6.44v-2.72h19.9v2.72zm-6.04 0h-4.2v1.94c0 1.46-.36 2.6-1.09 3.43-.73.83-1.83 1.31-3.31 1.42 0 1.23.37 2.21 1.12 2.95.75.73 1.78 1.1 3.11 1.1 1.31 0 2.36-.4 3.17-1.2.8-.81 1.2-1.84 1.2-3.1v-6.54zm7.78 15.9v-15.9h-2.79v-2.72h8.83v2.72h-2.8v15.9h-3.24z" style="fill:#fefefe;fill-rule:nonzero"/></svg>