<?xml version="1.0" encoding="UTF-8"?>
<!DOCTYPE svg PUBLIC "-//W3C//DTD SVG 1.1//EN" "http://www.w3.org/Graphics/SVG/1.1/DTD/svg11.dtd">
<!-- Creator: CorelDRAW 2020 (64-Bit) -->
<svg xmlns="http://www.w3.org/2000/svg" xml:space="preserve" width="108px" height="37px" version="1.1" style="shape-rendering:geometricPrecision; text-rendering:geometricPrecision; image-rendering:optimizeQuality; fill-rule:evenodd; clip-rule:evenodd"
viewBox="0 0 108 36.997"
 xmlns:xlink="http://www.w3.org/1999/xlink"
 xmlns:xodm="http://www.corel.com/coreldraw/odm/2003">
 <defs>
  <style type="text/css">
   <![CDATA[
    .fil2 {fill:#F68C40}
    .fil0 {fill:#DD3438}
    .fil3 {fill:white}
    .fil4 {fill:#DD3438;fill-rule:nonzero}
    .fil1 {fill:white;fill-rule:nonzero}
   ]]>
  </style>
 </defs>
 <g id="Layer_x0020_1">
  <metadata id="CorelCorpID_0Corel-Layer"/>
  <polygon class="fil0" points="-0.001,0.511 108.001,0.511 108.001,20.445 -0.001,20.445 "/>
  <path class="fil1" d="M45.309 16.741c1.087,0 2.066,-0.671 2.066,-2.284l0 -10.041 -3.426 0 0 7.123 -7.431 -6.67c-0.598,-0.544 -1.051,-0.652 -1.504,-0.652 -1.07,0 -2.048,0.652 -2.048,2.265l0 10.059 3.407 0 0 -7.123 7.431 6.67c0.58,0.544 1.034,0.653 1.505,0.653zm14.554 -4.205c-1.559,-1.269 -2.501,-1.939 -3.19,-2.411 0.779,-0.471 1.522,-1.015 3.136,-2.229l4.639 -3.48 -5.437 0 -3.498 2.954c-1.106,0.925 -1.758,1.541 -2.229,1.976 0.036,-0.634 0.072,-1.377 0.072,-2.121l0 -2.809 -3.77 0 0 12.125 3.77 0 0 -3.479c0,-0.58 -0.036,-1.179 -0.054,-1.74 0.417,0.416 0.996,0.942 2.247,2.03l3.661 3.189 5.673 0 -5.02 -4.005zm22.003 -8.12l-3.77 0 0 6.833c0,1.704 -0.906,2.374 -3.788,2.374 -3.86,0 -4.622,-0.58 -4.622,-2.374l0 -6.833 -3.733 0 0 6.833c0,3.661 2.519,5.492 8.355,5.492 5.039,0 7.558,-1.831 7.558,-5.492l0 -6.833zm17.092 9.769c-0.834,-0.852 -1.287,-1.287 -1.704,-1.595 1.994,-0.398 3.172,-1.957 3.172,-3.842 0,-3.462 -3.48,-4.332 -6.235,-4.332l-7.794 0 -2.447 3.154 10.549 0c1.287,0 2.066,0.471 2.066,1.414 0,0.833 -0.906,1.359 -2.066,1.359l-10.549 0 0 6.198 3.752 0 0 -3.208 5.764 0 2.7 3.208 5.021 0 -2.229 -2.356z"/>
  <path class="fil2" d="M18.437 4.255l1.429 0.003 -4.769 6.723c2.404,0 4.807,0 7.211,0l2.266 3.118 -11.683 0 -1.688 2.401 -4.394 0 8.659 -12.245 2.969 0z"/>
  <path class="fil3" d="M23.606 4.255l8.658 12.245 -4.443 0 -2.488 -3.588 -3.212 -4.542 -1.407 2.04 -4.394 0 4.317 -6.155 2.969 0zm-5.887 10.415l-1.29 1.83 -4.451 0 1.307 -1.83 4.434 0z"/>
  <path class="fil4" d="M26.31 27.864l0 1.531 -2.52 0 0 7.924 -1.896 0 0 -7.924 -2.52 0 0 -1.531 6.936 0zm11.69 0l0 9.455 -1.896 0 0 -6.15 -2.534 6.15 -1.435 0 -2.547 -6.15 0 6.15 -1.896 0 0 -9.455 2.153 0 3.008 7.031 3.007 -7.031 2.14 0zm7.532 9.455l-2.046 -3.183 -1.856 3.183 -2.14 0 2.98 -4.768 -3.021 -4.687 2.181 0 2.046 3.17 1.842 -3.17 2.14 0 -2.966 4.755 3.021 4.7 -2.181 0zm17.379 -8.561l-1.517 0 0 8.561 -1.734 0 0 -4.321 -5.526 0 0 1.572c0,0.415 0.094,0.749 0.284,1.002 0.19,0.253 0.474,0.379 0.853,0.379 0.353,0 0.628,-0.117 0.827,-0.352 0.198,-0.235 0.298,-0.537 0.298,-0.908l0 -0.176 1.679 0c0.009,0.072 0.014,0.158 0.014,0.257 0,0.822 -0.248,1.473 -0.745,1.951 -0.497,0.479 -1.179,0.718 -2.045,0.718 -0.922,0 -1.635,-0.273 -2.141,-0.819 -0.506,-0.547 -0.758,-1.258 -0.758,-2.134l0 -2.736 1.097 0c0.722,0 1.25,-0.174 1.585,-0.522 0.334,-0.348 0.501,-0.828 0.501,-1.442l0 -1.03 -4.416 0 0 -1.463 11.744 0 0 1.463zm-3.251 0l-2.343 0 0 1.03c0,0.686 -0.158,1.282 -0.474,1.788l2.817 0 0 -2.818zm8.765 -5.229c0.885,0 1.673,0.158 2.364,0.474 0.69,0.316 1.23,0.773 1.618,1.369 0.389,0.595 0.583,1.291 0.583,2.086l0 0.23 -1.707 0 0 -0.203c0,-0.569 -0.138,-1.041 -0.413,-1.416 -0.276,-0.375 -0.63,-0.652 -1.064,-0.833 -0.433,-0.18 -0.894,-0.271 -1.381,-0.271 -0.768,0 -1.427,0.188 -1.978,0.562 -0.551,0.375 -0.84,0.964 -0.867,1.768l1.517 0 0 1.463 -1.504 0 0 8.561 -1.747 0 0 -8.561 -1.504 0 0 -1.463 1.504 0c0.027,-0.795 0.237,-1.474 0.63,-2.038 0.393,-0.565 0.928,-0.994 1.605,-1.287 0.678,-0.294 1.459,-0.441 2.344,-0.441zm1.07 9.537l0 1.53c0,0.407 0.093,0.734 0.278,0.983 0.185,0.248 0.458,0.372 0.819,0.372 0.334,0 0.599,-0.115 0.793,-0.345 0.194,-0.231 0.291,-0.535 0.291,-0.915l0 -0.338 1.68 0c0.009,0.081 0.013,0.176 0.013,0.284 0,0.858 -0.244,1.54 -0.731,2.045 -0.488,0.506 -1.161,0.759 -2.019,0.759 -0.921,0 -1.628,-0.271 -2.12,-0.813 -0.492,-0.541 -0.738,-1.246 -0.738,-2.113l0 -2.871 1.395 0c0.723,0 1.249,-0.165 1.578,-0.495 0.33,-0.33 0.495,-0.815 0.495,-1.456l0 -0.935 -4.701 0 0 -1.463 7.776 0 0 1.463 -1.328 0 0 0.935c0,2.249 -1.061,3.373 -3.183,3.373l-0.298 0zm14.969 -4.308l-1.504 0 0 8.561 -1.748 0 0 -2.424c-0.28,0.361 -0.65,0.645 -1.11,0.853 -0.461,0.208 -0.998,0.311 -1.613,0.311 -1.155,0 -2.052,-0.343 -2.688,-1.029 -0.637,-0.686 -0.955,-1.616 -0.955,-2.791 0,-0.162 0.018,-0.415 0.054,-0.758l0.162 0c0.759,0 1.308,-0.163 1.646,-0.488 0.339,-0.325 0.508,-0.826 0.508,-1.503l0 -0.732 -3.467 0 0 -1.463 10.715 0 0 1.463zm-3.252 0l-2.262 0 0 1.043c0,0.786 -0.196,1.402 -0.589,1.849 -0.393,0.447 -0.987,0.702 -1.782,0.765 0,0.66 0.201,1.188 0.603,1.586 0.402,0.397 0.96,0.595 1.673,0.595 0.705,0 1.274,-0.216 1.707,-0.65 0.434,-0.433 0.65,-0.989 0.65,-1.666l0 -3.522zm4.186 8.561l0 -8.561 -1.503 0 0 -1.463 4.754 0 0 1.463 -1.503 0 0 8.561 -1.748 0z"/>
 </g>
</svg>
