<?xml version="1.0" encoding="UTF-8"?>
<!DOCTYPE svg PUBLIC "-//W3C//DTD SVG 1.1//EN" "http://www.w3.org/Graphics/SVG/1.1/DTD/svg11.dtd">
<!-- Creator: CorelDRAW 2020 (64-Bit) -->
<svg xmlns="http://www.w3.org/2000/svg" xml:space="preserve" width="60px" height="60px" version="1.1" style="shape-rendering:geometricPrecision; text-rendering:geometricPrecision; image-rendering:optimizeQuality; fill-rule:evenodd; clip-rule:evenodd"
viewBox="0 0 60 60"
 xmlns:xlink="http://www.w3.org/1999/xlink"
 xmlns:xodm="http://www.corel.com/coreldraw/odm/2003">
 <defs>
  <style type="text/css">
   <![CDATA[
    .str0 {stroke:#FEFEFE;stroke-miterlimit:22.9256}
    .fil2 {fill:#FEFEFE}
    .fil0 {fill:#ED3237}
    .fil1 {fill:#F68C40}
   ]]>
  </style>
 </defs>
 <g id="Layer_x0020_1">
  <metadata id="CorelCorpID_0Corel-Layer"/>
  <g id="_2198008706640">
   <circle class="fil0 str0" cx="30" cy="30" r="26.925"/>
   <g>
    <path class="fil1" d="M27.966 18.679l2.643 0.005 -8.818 12.431c4.445,0 8.888,0 13.333,0l4.19 5.766 -21.603 0 -3.121 4.44 -8.124 0 16.01 -22.642 5.49 0 0 0z"/>
    <path class="fil2" d="M37.525 18.679l16.009 22.641 -8.215 0 -4.6 -6.634 -5.939 -8.398 -2.602 3.772 -8.125 0 7.982 -11.381 5.49 0 0 0zm-10.885 19.257l-2.386 3.384 -8.23 0 2.416 -3.384 8.2 0z"/>
   </g>
  </g>
 </g>
</svg>
